<svg xmlns="http://www.w3.org/2000/svg" xmlns:xlink="http://www.w3.org/1999/xlink" width="500" zoomAndPan="magnify" viewBox="0 0 375 374.999991" height="500" preserveAspectRatio="xMidYMid meet" version="1.0"><defs><g/></defs><g fill="#700e6c" fill-opacity="1"><g transform="translate(123.311745, 199.312473)"><g><path d="M 2.09375 -29.171875 L 9.15625 -29.171875 L 23.328125 -10.71875 L 23.328125 -29.171875 L 30.40625 -29.171875 L 30.40625 0 L 23.328125 0 L 9.15625 -18.453125 L 9.15625 0 L 2.09375 0 Z M 2.09375 -29.171875 "/></g></g></g><g fill="#700e6c" fill-opacity="1"><g transform="translate(155.786711, 199.312473)"><g><path d="M 2.09375 -29.171875 L 28.578125 -29.171875 L 28.578125 -23.21875 L 9.15625 -23.21875 L 9.15625 -17.59375 L 24.40625 -17.59375 L 24.40625 -11.59375 L 9.15625 -11.59375 L 9.15625 -5.96875 L 28.578125 -5.96875 L 28.578125 0 L 2.09375 0 Z M 2.09375 -29.171875 "/></g></g></g><g fill="#700e6c" fill-opacity="1"><g transform="translate(185.449177, 199.312473)"><g><path d="M 0.40625 -29.171875 L 9.453125 -29.171875 L 16.84375 -18.75 L 24.296875 -29.171875 L 33.34375 -29.171875 L 21.375 -14.59375 L 33.34375 0 L 24.296875 0 L 16.84375 -10.421875 L 9.453125 0 L 0.40625 0 L 12.34375 -14.59375 Z M 0.40625 -29.171875 "/></g></g></g><g fill="#700e6c" fill-opacity="1"><g transform="translate(219.19914, 199.312473)"><g><path d="M 6.265625 -29.171875 L 26.25 -29.171875 C 27 -29.171875 27.691406 -28.984375 28.328125 -28.609375 C 28.960938 -28.234375 29.46875 -27.726562 29.84375 -27.09375 C 30.21875 -26.457031 30.40625 -25.765625 30.40625 -25.015625 L 30.40625 -4.15625 C 30.40625 -3.40625 30.21875 -2.71875 29.84375 -2.09375 C 29.46875 -1.46875 28.960938 -0.960938 28.328125 -0.578125 C 27.691406 -0.191406 27 0 26.25 0 L 6.265625 0 C 5.515625 0 4.828125 -0.191406 4.203125 -0.578125 C 3.578125 -0.960938 3.066406 -1.46875 2.671875 -2.09375 C 2.285156 -2.71875 2.09375 -3.40625 2.09375 -4.15625 L 2.09375 -25.015625 C 2.09375 -25.765625 2.285156 -26.457031 2.671875 -27.09375 C 3.066406 -27.726562 3.578125 -28.234375 4.203125 -28.609375 C 4.828125 -28.984375 5.515625 -29.171875 6.265625 -29.171875 Z M 10.203125 -23.21875 C 9.898438 -23.21875 9.648438 -23.125 9.453125 -22.9375 C 9.253906 -22.75 9.15625 -22.503906 9.15625 -22.203125 L 9.15625 -6.96875 C 9.15625 -6.675781 9.253906 -6.4375 9.453125 -6.25 C 9.648438 -6.0625 9.898438 -5.96875 10.203125 -5.96875 L 22.28125 -5.96875 C 22.570312 -5.96875 22.816406 -6.0625 23.015625 -6.25 C 23.222656 -6.4375 23.328125 -6.675781 23.328125 -6.96875 L 23.328125 -22.203125 C 23.328125 -22.503906 23.222656 -22.75 23.015625 -22.9375 C 22.816406 -23.125 22.570312 -23.21875 22.28125 -23.21875 Z M 10.203125 -23.21875 "/></g></g></g></svg>